<svg width="25" height="25" viewBox="0 0 25 25" fill="none" xmlns="http://www.w3.org/2000/svg">
<path d="M12.5 0C5.59692 0 0 5.59692 0 12.5C0 19.4031 5.59692 25 12.5 25C19.4031 25 25 19.4031 25 12.5C25 5.59692 19.4031 0 12.5 0Z" fill="white"/>
<path d="M12.6803 6.88882C13.5788 6.88882 14.3095 7.64312 14.3095 8.57064C14.3095 9.49536 13.5788 10.2497 12.6803 10.2497C11.7818 10.2497 11.0511 9.49536 11.0511 8.57064C11.0511 7.64312 11.7818 6.88882 12.6803 6.88882ZM12.6803 12.6299C14.8507 12.6299 16.6152 10.8084 16.6152 8.57064C16.6152 6.33008 14.8507 4.50858 12.6803 4.50858C10.5098 4.50858 8.748 6.33008 8.748 8.57064C8.748 10.8084 10.5098 12.6299 12.6803 12.6299ZM14.2716 15.9432C15.0726 15.7533 15.8439 15.4264 16.5557 14.9654C17.0943 14.6162 17.2566 13.8815 16.9183 13.3255C16.5773 12.7668 15.8683 12.5992 15.327 12.9512C13.7168 13.996 11.6437 13.996 10.0308 12.9512C9.49223 12.5992 8.78047 12.7668 8.44219 13.3255C8.1039 13.8815 8.26628 14.6162 8.80483 14.9654C9.51659 15.4264 10.2879 15.7533 11.089 15.9432L8.88873 18.2117C8.43948 18.6755 8.43948 19.4298 8.88873 19.8936C9.11606 20.1254 9.40834 20.2428 9.70332 20.2428C9.99831 20.2428 10.2933 20.1254 10.5206 19.8936L12.6803 17.6642L14.8426 19.8936C15.2918 20.3601 16.0198 20.3601 16.4718 19.8936C16.921 19.4298 16.921 18.6755 16.4718 18.2117L14.2716 15.9432Z" fill="#030A1A"/>
</svg>
